<svg xmlns="http://www.w3.org/2000/svg" viewBox="0 0 18 25" width="18" height="25">
	<style>
		tspan { white-space:pre }
		.shp0 { fill: #fc024d } 
	</style>
	<path id="Path_2" fill-rule="evenodd" class="shp0" d="M17.99 4.14L17.99 4.22L17.98 4.89C17.98 5.14 17.81 5.31 17.58 5.32C17.56 5.32 17.21 5.32 17.21 5.32L15.86 5.32C16.47 6.57 16.65 7.79 16.47 9.06C16.07 11.94 14.04 14.01 10.97 14.47C10.01 14.62 9.02 14.62 8.04 14.61C7.68 14.61 7.33 14.61 6.97 14.61C6.36 14.62 5.87 15.05 5.86 15.64C5.86 16.17 6.2 16.51 6.86 16.51C7.17 16.52 7.72 16.52 8.39 16.52C10.23 16.51 12.96 16.51 13.79 16.62C16.15 16.92 17.68 18.56 17.96 20.56C18.11 22.36 16.85 24.64 16.79 24.76C16.79 24.76 16.79 24.75 16.79 24.75C16.79 24.75 16.79 24.75 16.79 24.75C16.79 24.75 16.79 24.75 16.79 24.75C16.79 24.75 16.79 24.75 16.79 24.75C16.79 24.75 16.79 24.76 16.78 24.76C16.72 24.9 16.58 24.99 16.4 25L16.4 25C16.4 25 16.39 25 16.38 25L16.11 25L12.21 25L11.91 25C11.91 25 11.9 25 11.89 25C11.64 24.99 11.47 24.81 11.46 24.56C11.46 24.56 11.47 23.55 11.47 23.42C11.47 22.56 11.09 22.17 10.24 22.17C8.52 22.17 6.81 22.21 5.1 22.21C4.72 22.21 4.34 22.18 3.97 22.11C2.14 21.73 0.88 20.68 0.44 18.76C0 16.83 0.74 14.86 2.28 13.73C2.52 13.56 2.78 13.39 3.03 13.22C3.03 13.22 3.03 13.22 3.03 13.22C3.08 13.15 2.99 13.06 2.98 13.05C0.44 11.49 -0.26 9.08 0.08 6.28C0.42 3.54 2.06 1.75 4.5 0.7C5.48 0.28 6.49 0.07 7.51 0.01C7.51 0.01 17.14 0 17.55 0L17.56 0C17.8 0.01 17.97 0.18 17.98 0.43L17.99 1.04L17.99 1.18L17.99 1.18C17.99 2.03 17.99 3.19 17.99 4.14L17.99 4.14ZM11.74 6.38C11.58 5.87 11.31 5.4 10.93 5.02C10.56 4.64 10.1 4.36 9.6 4.2C9.1 4.03 8.56 3.99 8.04 4.08C6.68 4.31 5.58 5.44 5.35 6.83C5.01 8.94 6.6 10.76 8.6 10.76C8.65 10.76 8.7 10.76 8.74 10.76C8.79 10.76 8.84 10.75 8.88 10.75C8.93 10.75 8.98 10.74 9.02 10.73C9.07 10.73 9.11 10.72 9.16 10.71C10.53 10.49 11.63 9.36 11.85 7.97C11.94 7.44 11.9 6.89 11.74 6.38Z" />
</svg>